PathFileType	4	(X/Y/Z)	abd.trc
DataRate	CameraRate	NumFrames	NumMarkers	Units	OrigDataRate	OrigDataStartFrame	OrigNumFrames
100.0	100.0	10	17	mm	100.0	892	1189
Frame#	Time	STER			XIPH			T10			T1			CLAV_SC			CLAV_AC			SCAP_AA			SCAP_CP			SCAP_TS			SCAP_IA			DELT			ARMl			EPICm			EPICl			LARM_elb			STYLr			STYLu		
		X1	Y1	Z1	X2	Y2	Z2	X3	Y3	Z3	X4	Y4	Z4	X5	Y5	Z5	X6	Y6	Z6	X7	Y7	Z7	X8	Y8	Z8	X9	Y9	Z9	X10	Y10	Z10	X11	Y11	Z11	X12	Y12	Z12	X13	Y13	Z13	X14	Y14	Z14	X15	Y15	Z15	X16	Y16	Z16	X17	Y17	Z17

892	8.91	388.12213134765625	91.4205093383789	1441.06298828125	390.45697021484375	141.74510192871094	1276.32275390625	382.91265869140625	-97.6119384765625	1245.51171875	359.99652099609375	-65.52091979980469	1475.023193359375	421.0943908691406	79.42013549804688	1450.2322998046875	538.4690551757812	-15.175543785095215	1492.063232421875	544.7857055664062	-52.22066116333008	1473.2327880859375	495.5081787109375	-57.72520446777344	1486.0177001953125	490.22540283203125	-107.14202880859375	1427.5208740234375	490.6112976074219	-112.77801513671875	1290.2158203125	666.2407836914062	-52.72064971923828	1473.0657958984375	706.3270263671875	-67.54502868652344	1459.3564453125	844.45458984375	-37.61899185180664	1374.2547607421875	826.4049072265625	-69.06962585449219	1469.654296875	868.6077880859375	-78.50786590576172	1393.5718994140625	1004.5036010742188	131.07337951660156	1532.1845703125	1035.754638671875	110.52436065673828	1459.130859375
893	8.92	387.803955078125	91.36254119873047	1440.8704833984375	390.4095764160156	141.7744598388672	1276.29150390625	382.91583251953125	-97.60607147216797	1245.5164794921875	359.90911865234375	-65.478515625	1475.0028076171875	420.51373291015625	79.28715515136719	1450.346923828125	538.7423706054688	-15.258922576904297	1492.5137939453125	544.610107421875	-52.14897537231445	1473.3270263671875	495.3597717285156	-57.70458221435547	1486.0538330078125	490.0224914550781	-107.11193084716797	1427.635009765625	490.7112731933594	-112.71501159667969	1290.19677734375	666.1463623046875	-52.60298156738281	1472.980712890625	706.2870483398438	-67.44437408447266	1459.2213134765625	844.3134765625	-37.31120300292969	1374.050048828125	826.3087768554688	-68.94775390625	1469.38671875	868.4763793945312	-78.21954345703125	1393.2362060546875	1004.2915649414062	131.2443084716797	1532.157958984375	1035.563720703125	110.78191375732422	1459.1083984375
894	8.93	nan	nan	nan	390.34539794921875	141.7952117919922	1276.2578125	382.90631103515625	-97.6082534790039	1245.5357666015625	359.77850341796875	-65.44392395019531	1474.99267578125	nan	nan	nan	538.1386108398438	-15.132182121276855	1492.196044921875	544.48974609375	-52.09866714477539	1473.398193359375	495.2144775390625	-57.677547454833984	1486.0721435546875	489.99578857421875	-107.0649185180664	1427.6771240234375	490.6555480957031	-112.69015502929688	1290.2333984375	666.0064086914062	-52.50843811035156	1472.8316650390625	706.208740234375	-67.32781219482422	1459.003662109375	844.2130737304688	-36.96743392944336	1373.5277099609375	826.2587280273438	-68.847412109375	1468.9384765625	868.3060302734375	-77.93107604980469	1392.712890625	1004.3283081054688	131.19813537597656	1531.984375	1035.343505859375	111.0030288696289	1458.8487548828125
895	8.94	nan	nan	nan	390.3202209472656	141.8061981201172	1276.22802734375	382.8819885253906	-97.58641052246094	1245.53955078125	359.6546630859375	-65.4226303100586	1474.9749755859375	nan	nan	nan	538.0730590820312	-15.075773239135742	1492.2197265625	544.4136352539062	-52.04939651489258	1473.4344482421875	495.1243591308594	-57.617122650146484	1486.109375	490.047607421875	-107.0151596069336	1427.5460205078125	490.602294921875	-112.665283203125	1290.30712890625	666.868408203125	-52.1444206237793	1472.529052734375	706.1557006835938	-67.16411590576172	1458.6671142578125	843.8699951171875	-36.70214080810547	1373.026611328125	826.2320556640625	-68.721435546875	1468.36279296875	868.136962890625	-77.64807891845703	1392.0394287109375	1004.4686279296875	131.15953063964844	1531.5662841796875	1035.251220703125	111.25653839111328	1458.1693115234375
896	8.950000000000001	386.9224853515625	91.07575225830078	1440.2569580078125	390.241943359375	141.79080200195312	1276.1910400390625	382.8485107421875	-97.6077651977539	1245.5169677734375	359.5257568359375	-65.38070678710938	1474.9715576171875	420.47149658203125	79.54347229003906	1450.1746826171875	538.3634033203125	-15.083184242248535	1492.6424560546875	544.3668823242188	-51.94976043701172	1473.4425048828125	495.05352783203125	-57.53921890258789	1486.14697265625	489.952392578125	-106.9666519165039	1427.8031005859375	490.60272216796875	-112.67232513427734	1290.3507080078125	666.906005859375	-51.987403869628906	1472.2332763671875	706.1171264648438	-67.03349304199219	1458.2576904296875	843.8924560546875	-36.346981048583984	1372.35107421875	826.2130126953125	-68.5567626953125	1467.6422119140625	867.9542236328125	-77.37936401367188	1391.211181640625	1004.6010131835938	131.14013671875	1530.71142578125	1035.1402587890625	111.54174041748047	1457.25634765625
897	8.96	385.8595275878906	90.75032043457031	1440.098876953125	390.16888427734375	141.76658630371094	1276.141845703125	382.8376770019531	-97.61500549316406	1245.532958984375	359.4503479003906	-65.3646469116211	1474.9791259765625	420.40496826171875	79.59351348876953	1450.159912109375	537.924560546875	-14.836677551269531	1492.2353515625	544.3115844726562	-51.80836486816406	1473.4390869140625	494.9830627441406	-57.4246940612793	1486.198974609375	490.0628662109375	-106.91020965576172	1427.709228515625	490.509765625	-112.69001770019531	1290.4134521484375	666.007080078125	-52.06599044799805	1471.921630859375	706.06298828125	-66.87187957763672	1457.789794921875	843.4472045898438	-36.132415771484375	1371.47607421875	826.210205078125	-68.36856079101562	1466.830078125	867.7616577148438	-77.14752197265625	1390.2979736328125	1004.6018676757812	131.33912658691406	1529.5618896484375	1035.0062255859375	111.76751708984375	1456.10107421875
898	8.97	386.242431640625	90.71060943603516	1440.4075927734375	390.0724792480469	141.7206573486328	1276.0826416015625	382.7824401855469	-97.61453247070312	1245.55419921875	359.3609924316406	-65.34449005126953	1474.9852294921875	420.3116760253906	79.68293762207031	1450.327392578125	537.9779052734375	-14.66865348815918	1492.1849365234375	544.32861328125	-51.65508270263672	1473.41845703125	494.9267578125	-57.2570915222168	1486.253662109375	489.931640625	-106.89340209960938	1427.98828125	490.4640197753906	-112.71266174316406	1290.4549560546875	666.5828857421875	-51.75572967529297	1471.6951904296875	706.0806274414062	-66.71402740478516	1457.2154541015625	843.301025390625	-35.85781478881836	1370.4202880859375	826.244384765625	-68.16822052001953	1465.9031982421875	867.5134887695312	-76.89340209960938	1389.2431640625	1004.6856079101562	131.60650634765625	1528.0611572265625	1035.0052490234375	111.9995346069336	1454.5218505859375
899	8.98	386.2086486816406	90.72772216796875	1440.3651123046875	390.00555419921875	141.69326782226562	1276.0269775390625	382.72332763671875	-97.65611267089844	1245.5728759765625	359.2753601074219	-65.3195571899414	1475.005859375	420.2166442871094	79.73939514160156	1450.2816162109375	538.11181640625	-14.480016708374023	1492.254150390625	544.3407592773438	-51.45709991455078	1473.3994140625	494.9365539550781	-57.08493423461914	1486.2860107421875	489.8456726074219	-106.8326644897461	1428.2725830078125	490.3507995605469	-112.76347351074219	1290.5518798828125	666.0576171875	-51.69426727294922	1471.0078125	706.095947265625	-66.55558776855469	1456.5992431640625	843.0687255859375	-35.639923095703125	1369.327392578125	826.2813110351562	-67.946044921875	1464.8807373046875	867.2764282226562	-76.66807556152344	1388.069580078125	1004.9277954101562	131.92616271972656	1526.3360595703125	1035.0380859375	112.17029571533203	1452.7689208984375
900	8.99	nan	nan	nan	389.9272155761719	141.6686553955078	1275.9490966796875	382.65972900390625	-97.66072845458984	1245.5819091796875	359.2142639160156	-65.28217315673828	1475.009765625	420.11248779296875	79.77033233642578	1450.0323486328125	538.158203125	-14.278264999389648	1492.2288818359375	544.3914794921875	-51.27180099487305	1473.365966796875	494.9693603515625	-56.90084457397461	1486.328369140625	489.9322509765625	-106.76362609863281	1428.3790283203125	490.1877136230469	-112.81026458740234	1290.6126708984375	666.7726440429688	-51.32363510131836	1470.6748046875	706.1737670898438	-66.36177062988281	1455.8876953125	842.8931884765625	-35.421546936035156	1368.0684814453125	826.380126953125	-67.73855590820312	1463.719482421875	867.0481567382812	-76.4827880859375	1386.77587890625	1005.5077514648438	132.00503540039062	1524.41162109375	1035.1500244140625	112.36497497558594	1450.6943359375
901	9.0	386.43280029296875	91.23873138427734	1440.2027587890625	389.79486083984375	141.61685180664062	1275.8446044921875	382.62445068359375	-97.68614959716797	1245.56591796875	359.136962890625	-65.28231811523438	1474.991943359375	419.958740234375	79.82257080078125	1449.885986328125	538.2713623046875	-14.063641548156738	1492.1729736328125	544.442138671875	-51.093441009521484	1473.2828369140625	495.007568359375	-56.71543884277344	1486.35498046875	489.6298828125	-106.69937133789062	1428.8895263671875	490.1502990722656	-112.84922790527344	1290.6142578125	666.29052734375	-51.20170974731445	1469.8876953125	706.2343139648438	-66.14269256591797	1455.121337890625	842.7252197265625	-35.2413330078125	1366.6741943359375	826.4746704101562	-67.51744079589844	1462.425537109375	866.861083984375	-76.31675720214844	1385.3148193359375	1005.9436645507812	132.19305419921875	1522.2816162109375	1035.29296875	112.47608184814453	1448.3714599609375
